<?xml version="1.0" encoding="UTF-8"?>
<svg width="700pt" height="700pt" version="1.1" viewBox="0 0 700 700" xmlns="http://www.w3.org/2000/svg" xmlns:xlink="http://www.w3.org/1999/xlink">
 <defs>
  <symbol id="v" overflow="visible">
   <path d="m19.078-1.1406c-0.99219 0.51172-2.0156 0.89844-3.0781 1.1562s-2.1797 0.39062-3.3438 0.39062c-3.4492 0-6.1836-0.96094-8.2031-2.8906-2.0234-1.9375-3.0312-4.5625-3.0312-7.875s1.0078-5.9297 3.0312-7.8594c2.0195-1.9375 4.7539-2.9062 8.2031-2.9062 1.1641 0 2.2812 0.13281 3.3438 0.39062 1.0625 0.26172 2.0859 0.64062 3.0781 1.1406v4.2969c-1-0.67578-1.9844-1.1719-2.9531-1.4844-0.96094-0.3125-1.9688-0.46875-3.0312-0.46875-1.9062 0-3.4062 0.61719-4.5 1.8438-1.0938 1.2188-1.6406 2.9023-1.6406 5.0469 0 2.1484 0.54688 3.8359 1.6406 5.0625 1.0938 1.2188 2.5938 1.8281 4.5 1.8281 1.0625 0 2.0703-0.15625 3.0312-0.46875 0.96875-0.32031 1.9531-0.82031 2.9531-1.5z"/>
  </symbol>
  <symbol id="d" overflow="visible">
   <path d="m13.953-11.328c-0.4375-0.20703-0.87109-0.35938-1.2969-0.45312-0.42969-0.09375-0.85938-0.14062-1.2969-0.14062-1.2812 0-2.2656 0.41406-2.9531 1.2344-0.6875 0.8125-1.0312 1.9844-1.0312 3.5156v7.1719h-4.9844v-15.562h4.9844v2.5469c0.63281-1.0195 1.3633-1.7578 2.1875-2.2188 0.83203-0.46875 1.8281-0.70312 2.9844-0.70312 0.16406 0 0.34766 0.007812 0.54688 0.015625 0.19531 0.011719 0.47656 0.042969 0.84375 0.09375z"/>
  </symbol>
  <symbol id="b" overflow="visible">
   <path d="m17.938-7.8281v1.4219h-11.641c0.125 1.168 0.54688 2.043 1.2656 2.625 0.71875 0.58594 1.7266 0.875 3.0312 0.875 1.0391 0 2.1094-0.15625 3.2031-0.46875 1.1016-0.3125 2.2344-0.78125 3.3906-1.4062v3.8438c-1.168 0.4375-2.3398 0.77344-3.5156 1-1.1797 0.22656-2.3555 0.34375-3.5312 0.34375-2.8242 0-5.0156-0.71094-6.5781-2.1406-1.5625-1.4375-2.3438-3.4453-2.3438-6.0312 0-2.5391 0.76562-4.5352 2.2969-5.9844 1.5391-1.457 3.6562-2.1875 6.3438-2.1875 2.4453 0 4.4062 0.73438 5.875 2.2031s2.2031 3.4375 2.2031 5.9062zm-5.125-1.6562c0-0.9375-0.27734-1.6953-0.82812-2.2812-0.55469-0.58203-1.2734-0.875-2.1562-0.875-0.96875 0-1.7578 0.27344-2.3594 0.8125-0.59375 0.54297-0.96484 1.3242-1.1094 2.3438z"/>
  </symbol>
  <symbol id="l" overflow="visible">
   <path d="m9.375-7c-1.043 0-1.8281 0.17969-2.3594 0.53125-0.52344 0.34375-0.78125 0.85938-0.78125 1.5469 0 0.63672 0.20703 1.1328 0.625 1.4844 0.42578 0.35547 1.0156 0.53125 1.7656 0.53125 0.9375 0 1.7227-0.33203 2.3594-1 0.64453-0.67578 0.96875-1.5195 0.96875-2.5312v-0.5625zm7.5938-1.875v8.875h-5.0156v-2.3125c-0.66797 0.94922-1.418 1.6406-2.25 2.0781-0.83594 0.42578-1.8516 0.64062-3.0469 0.64062-1.6172 0-2.9297-0.46875-3.9375-1.4062-1-0.94531-1.5-2.1719-1.5-3.6719 0-1.8203 0.625-3.1602 1.875-4.0156 1.2578-0.85156 3.2344-1.2812 5.9219-1.2812h2.9375v-0.39062c0-0.78125-0.3125-1.3516-0.9375-1.7188-0.61719-0.375-1.5781-0.5625-2.8906-0.5625-1.0742 0-2.0703 0.10938-2.9844 0.32812-0.91797 0.21094-1.7734 0.52734-2.5625 0.95312v-3.7969c1.0703-0.25781 2.1445-0.45312 3.2188-0.57812 1.0703-0.13281 2.1445-0.20312 3.2188-0.20312 2.8125 0 4.8359 0.55469 6.0781 1.6562 1.25 1.1055 1.875 2.9062 1.875 5.4062z"/>
  </symbol>
  <symbol id="a" overflow="visible">
   <path d="m7.8281-19.984v4.4219h5.125v3.5469h-5.125v6.6094c0 0.71875 0.14062 1.2109 0.42188 1.4688 0.28906 0.25 0.86328 0.375 1.7188 0.375h2.5625v3.5625h-4.2812c-1.9609 0-3.3516-0.40625-4.1719-1.2188-0.82422-0.82031-1.2344-2.2188-1.2344-4.1875v-6.6094h-2.4688v-3.5469h2.4688v-4.4219z"/>
  </symbol>
  <symbol id="f" overflow="visible">
   <path d="m12.984-13.297v-8.3281h5v21.625h-5v-2.25c-0.6875 0.91797-1.4453 1.5898-2.2656 2.0156-0.82422 0.42578-1.7773 0.64062-2.8594 0.64062-1.9297 0-3.5078-0.75781-4.7344-2.2812-1.2305-1.5312-1.8438-3.4922-1.8438-5.8906 0-2.4062 0.61328-4.3672 1.8438-5.8906 1.2266-1.5195 2.8047-2.2812 4.7344-2.2812 1.0703 0 2.0195 0.21484 2.8438 0.64062 0.83203 0.42969 1.5938 1.0938 2.2812 2zm-3.2812 10.078c1.0625 0 1.875-0.38281 2.4375-1.1562 0.5625-0.78125 0.84375-1.9102 0.84375-3.3906 0-1.4883-0.28125-2.6172-0.84375-3.3906-0.5625-0.78125-1.375-1.1719-2.4375-1.1719-1.0547 0-1.8594 0.39062-2.4219 1.1719-0.5625 0.77344-0.84375 1.9023-0.84375 3.3906 0 1.4805 0.28125 2.6094 0.84375 3.3906 0.5625 0.77344 1.3672 1.1562 2.4219 1.1562z"/>
  </symbol>
  <symbol id="k" overflow="visible">
   <path d="m10.672-3.2188c1.0703 0 1.8828-0.38281 2.4375-1.1562 0.5625-0.78125 0.84375-1.9102 0.84375-3.3906 0-1.4883-0.28125-2.6172-0.84375-3.3906-0.55469-0.78125-1.3672-1.1719-2.4375-1.1719-1.0625 0-1.8828 0.39062-2.4531 1.1719-0.5625 0.78125-0.84375 1.9141-0.84375 3.3906 0 1.4688 0.28125 2.5938 0.84375 3.375 0.57031 0.78125 1.3906 1.1719 2.4531 1.1719zm-3.2969-10.078c0.67578-0.90625 1.4297-1.5703 2.2656-2 0.83203-0.42578 1.7969-0.64062 2.8906-0.64062 1.9141 0 3.4883 0.76172 4.7188 2.2812 1.2266 1.5234 1.8438 3.4844 1.8438 5.8906 0 2.3984-0.61719 4.3594-1.8438 5.8906-1.2305 1.5234-2.8047 2.2812-4.7188 2.2812-1.0938 0-2.0586-0.21484-2.8906-0.64062-0.83594-0.4375-1.5898-1.1094-2.2656-2.0156v2.25h-4.9844v-21.625h4.9844z"/>
  </symbol>
  <symbol id="e" overflow="visible">
   <path d="m0.34375-15.562h4.9844l4.1875 10.562 3.5469-10.562h4.9844l-6.5469 17.031c-0.65625 1.7383-1.4297 2.9531-2.3125 3.6406-0.875 0.6875-2.0273 1.0312-3.4531 1.0312h-2.8906v-3.2656h1.5625c0.84375 0 1.457-0.13672 1.8438-0.40625 0.38281-0.26172 0.67969-0.74219 0.89062-1.4375l0.14062-0.4375z"/>
  </symbol>
  <symbol id="j" overflow="visible">
   <path d="m15.203-3.7812h-8.3594l-1.3281 3.7812h-5.375l7.6875-20.75h6.375l7.6875 20.75h-5.375zm-7.0312-3.8438h5.6875l-2.8438-8.2656z"/>
  </symbol>
  <symbol id="i" overflow="visible">
   <path d="m16.812-12.984c0.63281-0.95703 1.3828-1.6875 2.25-2.1875 0.86328-0.50781 1.8164-0.76562 2.8594-0.76562 1.7891 0 3.1484 0.55469 4.0781 1.6562 0.9375 1.0938 1.4062 2.6953 1.4062 4.7969v9.4844h-5v-8.125c0.007812-0.11328 0.015625-0.23438 0.015625-0.35938 0.007813-0.13281 0.015625-0.32031 0.015625-0.5625 0-1.1016-0.16406-1.8984-0.48438-2.3906-0.32422-0.5-0.85156-0.75-1.5781-0.75-0.94922 0-1.6797 0.39062-2.1875 1.1719-0.51172 0.77344-0.77734 1.8984-0.79688 3.375v7.6406h-5v-8.125c0-1.7188-0.15234-2.8203-0.45312-3.3125-0.29297-0.5-0.82031-0.75-1.5781-0.75-0.96094 0-1.6992 0.39062-2.2188 1.1719-0.51172 0.78125-0.76562 1.9023-0.76562 3.3594v7.6562h-5.0156v-15.562h5.0156v2.2656c0.60156-0.875 1.3008-1.5312 2.0938-1.9688 0.78906-0.44531 1.6641-0.67188 2.625-0.67188 1.0703 0 2.0195 0.26172 2.8438 0.78125 0.83203 0.51172 1.457 1.2344 1.875 2.1719z"/>
  </symbol>
  <symbol id="h" overflow="visible">
   <path d="m18.047-9.4844v9.4844h-5.0156v-7.2344c0-1.3516-0.03125-2.2852-0.09375-2.7969-0.054688-0.50781-0.15234-0.88281-0.29688-1.125-0.19922-0.33203-0.46484-0.58594-0.79688-0.76562-0.33594-0.17578-0.71484-0.26562-1.1406-0.26562-1.043 0-1.8594 0.40234-2.4531 1.2031-0.58594 0.80469-0.875 1.9141-0.875 3.3281v7.6562h-4.9844v-21.625h4.9844v8.3281c0.75-0.90625 1.5391-1.5703 2.375-2 0.84375-0.42578 1.7734-0.64062 2.7969-0.64062 1.8008 0 3.1641 0.55469 4.0938 1.6562 0.9375 1.0938 1.4062 2.6953 1.4062 4.7969z"/>
  </symbol>
  <symbol id="u" overflow="visible">
   <path d="m14.547-15.078v3.7812c-1.0625-0.44531-2.0898-0.78125-3.0781-1-0.99219-0.22656-1.9297-0.34375-2.8125-0.34375-0.9375 0-1.6406 0.12109-2.1094 0.35938-0.46094 0.24219-0.6875 0.60547-0.6875 1.0938 0 0.39844 0.17188 0.70312 0.51562 0.92188 0.35156 0.21094 0.97656 0.36719 1.875 0.46875l0.875 0.125c2.5508 0.32422 4.2656 0.85547 5.1406 1.5938 0.88281 0.74219 1.3281 1.9023 1.3281 3.4844 0 1.668-0.61719 2.918-1.8438 3.75-1.2188 0.83594-3.043 1.25-5.4688 1.25-1.0312 0-2.0938-0.085938-3.1875-0.25-1.0938-0.15625-2.2266-0.39453-3.3906-0.71875v-3.7812c1 0.48047 2.0195 0.83984 3.0625 1.0781 1.0391 0.24219 2.0977 0.35938 3.1719 0.35938 0.96875 0 1.6953-0.13281 2.1875-0.40625 0.5-0.26953 0.75-0.66406 0.75-1.1875 0-0.44531-0.17188-0.78125-0.51562-1-0.33594-0.21875-1.0078-0.38281-2.0156-0.5l-0.875-0.10938c-2.2188-0.28125-3.7773-0.79688-4.6719-1.5469-0.88672-0.75-1.3281-1.8906-1.3281-3.4219 0-1.6445 0.5625-2.8633 1.6875-3.6562 1.1328-0.80078 2.875-1.2031 5.2188-1.2031 0.91406 0 1.8789 0.070312 2.8906 0.20312 1.0078 0.13672 2.1016 0.35547 3.2812 0.65625z"/>
  </symbol>
  <symbol id="t" overflow="visible">
   <path d="m17.062-20.094v4.3906c-1.1484-0.50781-2.2617-0.89453-3.3438-1.1562-1.0859-0.25781-2.1094-0.39062-3.0781-0.39062-1.2734 0-2.2148 0.17969-2.8281 0.53125-0.61719 0.35547-0.92188 0.90234-0.92188 1.6406 0 0.55469 0.20312 0.98438 0.60938 1.2969 0.41406 0.3125 1.1719 0.57812 2.2656 0.79688l2.2656 0.45312c2.3125 0.46875 3.9531 1.1797 4.9219 2.125 0.97656 0.9375 1.4688 2.2812 1.4688 4.0312 0 2.2812-0.68359 3.9844-2.0469 5.1094-1.3555 1.1172-3.4297 1.6719-6.2188 1.6719-1.3125 0-2.6328-0.125-3.9531-0.375-1.3242-0.25-2.6523-0.61719-3.9844-1.1094v-4.5312c1.332 0.71094 2.6133 1.2461 3.8438 1.6094 1.2383 0.35547 2.4297 0.53125 3.5781 0.53125 1.1758 0 2.0703-0.19141 2.6875-0.57812 0.625-0.39453 0.9375-0.95703 0.9375-1.6875 0-0.64453-0.21484-1.1406-0.64062-1.4844-0.41797-0.35156-1.2578-0.67188-2.5156-0.95312l-2.0781-0.45312c-2.0742-0.44531-3.5898-1.1562-4.5469-2.125-0.96094-0.97656-1.4375-2.2891-1.4375-3.9375 0-2.0703 0.66406-3.6602 2-4.7656 1.332-1.1133 3.25-1.6719 5.75-1.6719 1.1445 0 2.3164 0.089844 3.5156 0.26562 1.207 0.16797 2.457 0.42188 3.75 0.76562z"/>
  </symbol>
  <symbol id="g" overflow="visible">
   <path d="m2.2188-6.0625v-9.5h5.0156v1.5469c0 0.84375-0.007813 1.9062-0.015625 3.1875-0.011719 1.2734-0.015625 2.1211-0.015625 2.5469 0 1.25 0.03125 2.1523 0.09375 2.7031 0.0625 0.55469 0.17188 0.95312 0.32812 1.2031 0.20703 0.32422 0.47266 0.57422 0.79688 0.75 0.33203 0.17969 0.71094 0.26562 1.1406 0.26562 1.0391 0 1.8594-0.39453 2.4531-1.1875 0.59375-0.80078 0.89062-1.9102 0.89062-3.3281v-7.6875h4.9688v15.562h-4.9688v-2.25c-0.75 0.90625-1.5469 1.5781-2.3906 2.0156-0.83594 0.42578-1.7578 0.64062-2.7656 0.64062-1.8047 0-3.1797-0.55078-4.125-1.6562-0.9375-1.1016-1.4062-2.707-1.4062-4.8125z"/>
  </symbol>
  <symbol id="s" overflow="visible">
   <path d="m2.3906-15.562h4.9844v15.562h-4.9844zm0-6.0625h4.9844v4.0469h-4.9844z"/>
  </symbol>
  <symbol id="c" overflow="visible">
   <path d="m9.7969-12.391c-1.1055 0-1.9492 0.39844-2.5312 1.1875-0.57422 0.79297-0.85938 1.9375-0.85938 3.4375 0 1.4922 0.28516 2.6328 0.85938 3.4219 0.58203 0.79297 1.4258 1.1875 2.5312 1.1875 1.082 0 1.9102-0.39453 2.4844-1.1875 0.58203-0.78906 0.875-1.9297 0.875-3.4219 0-1.5-0.29297-2.6445-0.875-3.4375-0.57422-0.78906-1.4023-1.1875-2.4844-1.1875zm0-3.5469c2.6758 0 4.7656 0.72656 6.2656 2.1719 1.5078 1.4375 2.2656 3.4375 2.2656 6 0 2.5547-0.75781 4.5547-2.2656 6-1.5 1.4492-3.5898 2.1719-6.2656 2.1719-2.6875 0-4.793-0.72266-6.3125-2.1719-1.5117-1.4453-2.2656-3.4453-2.2656-6 0-2.5625 0.75391-4.5625 2.2656-6 1.5195-1.4453 3.625-2.1719 6.3125-2.1719z"/>
  </symbol>
  <symbol id="r" overflow="visible">
   <path d="m12.641-21.625v3.2656h-2.75c-0.71094 0-1.2031 0.13281-1.4844 0.39062-0.27344 0.25-0.40625 0.6875-0.40625 1.3125v1.0938h4.25v3.5469h-4.25v12.016h-4.9844v-12.016h-2.4688v-3.5469h2.4688v-1.0938c0-1.6953 0.47266-2.9453 1.4219-3.75 0.94531-0.8125 2.4102-1.2188 4.3906-1.2188z"/>
  </symbol>
  <symbol id="q" overflow="visible">
   <path d="m2.6094-20.75h5.9844l7.5469 14.234v-14.234h5.0781v20.75h-5.9844l-7.5469-14.234v14.234h-5.0781z"/>
  </symbol>
  <symbol id="p" overflow="visible">
   <path d="m18.047-9.4844v9.4844h-5.0156v-7.25c0-1.3438-0.03125-2.2695-0.09375-2.7812-0.054688-0.50781-0.15234-0.88281-0.29688-1.125-0.19922-0.33203-0.46484-0.58594-0.79688-0.76562-0.33594-0.17578-0.71484-0.26562-1.1406-0.26562-1.043 0-1.8594 0.40234-2.4531 1.2031-0.58594 0.80469-0.875 1.9141-0.875 3.3281v7.6562h-4.9844v-15.562h4.9844v2.2656c0.75-0.90625 1.5391-1.5703 2.375-2 0.84375-0.42578 1.7734-0.64062 2.7969-0.64062 1.8008 0 3.1641 0.55469 4.0938 1.6562 0.9375 1.0938 1.4062 2.6953 1.4062 4.7969z"/>
  </symbol>
  <symbol id="o" overflow="visible">
   <path d="m2.6094-20.75h8.8906c2.6328 0 4.6602 0.58984 6.0781 1.7656 1.4141 1.168 2.125 2.8359 2.125 5 0 2.1797-0.71094 3.8555-2.125 5.0312-1.418 1.168-3.4453 1.75-6.0781 1.75h-3.5312v7.2031h-5.3594zm5.3594 3.875v5.7969h2.9531c1.0391 0 1.8438-0.25 2.4062-0.75 0.5625-0.50781 0.84375-1.2266 0.84375-2.1562 0-0.92578-0.28125-1.6406-0.84375-2.1406s-1.3672-0.75-2.4062-0.75z"/>
  </symbol>
  <symbol id="n" overflow="visible">
   <path d="m2.3906-15.562h4.9844v15.281c0 2.082-0.50781 3.6719-1.5156 4.7656-1 1.1016-2.4492 1.6562-4.3438 1.6562h-2.4531v-3.2656h0.85938c0.9375 0 1.582-0.21484 1.9375-0.64062 0.35156-0.42969 0.53125-1.2656 0.53125-2.5156zm0-6.0625h4.9844v4.0469h-4.9844z"/>
  </symbol>
  <symbol id="m" overflow="visible">
   <path d="m14.969-15.078v4.0625c-0.67969-0.46875-1.3594-0.8125-2.0469-1.0312-0.67969-0.22656-1.3828-0.34375-2.1094-0.34375-1.3867 0-2.4688 0.40625-3.25 1.2188-0.77344 0.8125-1.1562 1.9492-1.1562 3.4062 0 1.4492 0.38281 2.5781 1.1562 3.3906 0.78125 0.8125 1.8633 1.2188 3.25 1.2188 0.78125 0 1.5195-0.11328 2.2188-0.34375 0.69531-0.22656 1.3438-0.57031 1.9375-1.0312v4.0781c-0.78125 0.28125-1.5742 0.49219-2.375 0.64062-0.79297 0.14453-1.5938 0.21875-2.4062 0.21875-2.8047 0-5-0.71875-6.5938-2.1562-1.5859-1.4453-2.375-3.4531-2.375-6.0156 0-2.5703 0.78906-4.5781 2.375-6.0156 1.5938-1.4375 3.7891-2.1562 6.5938-2.1562 0.8125 0 1.6133 0.074219 2.4062 0.21875 0.80078 0.13672 1.5938 0.35156 2.375 0.64062z"/>
  </symbol>
 </defs>
 <g>
  <path d="m314.82 262.43c-0.86719-4.4062-3.4102-8.2578-6.9844-10.566-15.047-9.7383-35.383-16.902-57.34-24.043-25.73 34.91-38.27 65.801-43.492 81.355-2.3984 7.1328-8.207 12.602-15.551 14.629-95.277 26.332-141.25 46.707-152.2 51.863-1.9648 15.273-4.6562 33.652-8.5547 56.43-1.1484 6.7109 1.6562 13.398 7.1367 17.043 33.637 22.367 61.949 29.078 86.93 35.004 22.324 5.293 43.418 10.297 64.234 25.223 4.2695 3.0586 9.4375 4.1562 14.168 2.9609 34.656-8.6055 61.562-31.523 87.59-53.691 18.664-15.895 36.289-30.902 56.055-40.238 5.5234-2.6055 8.1562-8.75 6.1289-14.289-20.012-54.684-33.328-117.3-38.121-141.68zm-48.516 131.39c-1.1172 1.168-2.6133 1.7578-4.1094 1.7578-1.418 0-2.8359-0.52344-3.9336-1.5781-2.2695-2.1797-2.3516-5.7852-0.17578-8.0508 20.84-21.762 21.238-46.562 21.246-46.809 0.015625-3.1289 2.5664-5.6641 5.6914-5.6641h0.015624c3.1367 0.011719 5.6758 2.543 5.6758 5.6797-0.007813 1.1953-0.28125 29.469-24.41 54.664z"/>
  <path d="m160.43 198.64c-23.426 14.305-37.953 23.562-49.625 30.988-14.516 9.2461-25 15.926-42.988 26.184-7.8203 4.4609-13.605 12.188-15.871 21.18-4.8164 19.109-5.9609 32.035-7.7031 51.598-0.83203 9.3281-1.793 20.168-3.3633 33.809 18.223-8.0703 63.824-26.43 147.55-49.57 3.6875-1.0234 6.6016-3.7383 7.793-7.2812 5.2812-15.738 17.711-46.512 42.863-81.426-22.332-7.1914-45.34-14.688-67.133-25.348-3.9727-1.9297-8.4922-1.9922-11.527-0.13281z"/>
  <path d="m515.75 329.18c-23.109-37.77-43.531-46.809-61.547-54.785-32.816-14.531-51.945-28.309-58.836-137.04-3.9062 0.67188-7.7812 1.5664-11.562 2.9141-47.801 17.066-93.52 66.555-108.54 83.965 14.477 5.2422 27.758 10.945 38.762 18.062 6.1484 3.9805 10.508 10.516 11.965 17.926 4.7422 24.117 17.91 86.043 37.633 139.96 3.25 8.8789 0.53906 18.434-6.2109 24.551 9.8438 12.629 25.926 32.953 41.059 32.953h108.16c17.512-0.34766 32.156-9.1094 41.121-24.66 11.891-20.641 16.559-45.367 21.309-73.738-1.2852 0.078125-2.5859 0.18359-3.8477 0.18359-20.297-0.003907-37.238-10.32-49.457-30.301z"/>
  <path d="m244.36 213.87c6.5742 2.1172 13.059 4.1992 19.371 6.3281 11.738-14.102 61.625-71.137 116.26-90.637 6.0117-2.1406 12.203-3.5078 18.453-4.1836-4.3438-6.9609-7.207-12.473-9.6211-17.145-1.4531-2.8047-2.7422-5.3242-4.1484-7.6914-1.1367-1.9258-2.1016-3.6719-2.9727-5.2539-4.7656-8.6602-5.8984-10.707-23.43-13.621l-2.3633-0.38672c-41.852-6.957-49.395-8.2031-100.03-10.68-5.4102-0.30078-12.176 3.2227-15.465 7.9375-29.477 42.223-54.312 79.895-59.676 111.72 20.57 9.6523 42.41 16.793 63.621 23.613zm-25.184-51.426c0.59375-0.32031 59.766-32.141 85.039-55.699 2.293-2.1445 5.9023-2.0195 8.043 0.28516 2.1406 2.293 2.0156 5.8984-0.28516 8.043-26.355 24.57-84.941 56.082-87.426 57.414-0.85547 0.45703-1.7773 0.67188-2.6797 0.67188-2.0312 0-3.9961-1.0859-5.0195-3-1.4844-2.7812-0.44531-6.2266 2.3281-7.7148z"/>
  <path d="m497.06 122.73c-11.367 7.9062-22.641 18.707-28.809 24.934 28.355 17.617 67.41 43.781 102.33 73.758l43.906-31.746c-0.44531-1.0703-0.875-2.1406-1.3086-3.2266-7.0742-17.68-16.758-41.895-96.301-66.723-6.6992-2.0938-14.105-0.96875-19.816 3.0039z"/>
  <path d="m360.14 70.441c22.094 3.6719 25.445 8.3008 31.535 19.355 0.82031 1.4922 1.7188 3.1289 2.7969 4.9414 1.5078 2.543 2.9102 5.2422 4.4688 8.2656 2.9375 5.6797 6.5742 12.684 12.918 22.121 13.418 0.76172 26.754 4.6719 38.867 11.875 2.3633 1.3984 4.9141 2.9375 7.5664 4.543 4.1328-4.2578 11.816-11.879 20.73-19.297-51.641-2.7969-68.84-50.285-69.02-50.828-1.0234-2.9727 0.55078-6.2109 3.5234-7.2344 2.9844-1.0117 6.2109 0.55078 7.2344 3.5195 0.75781 2.1641 18.535 50.742 75.699 42.453 7.4453-3.2109 15.949-3.7617 23.812-1.2969 11.75 3.6641 22.035 7.3477 31.133 11.02-3.2266-8.2383-5.6523-16.258-7.3047-22.434-2.3516-8.7734-7.8086-16.594-15.375-22.023-30.465-21.863-69.074-37.289-89.379-44.535-11.43-4.082-23.953-3.4844-34.359 1.6211-23.477 11.531-41.68 27.562-51.141 36.887 1.3047 0.21484 2.5547 0.42188 3.9336 0.65625z"/>
  <path d="m34.93 306.93c1.2227-10.398 2.8789-20.426 5.9727-32.707 3.0156-11.984 10.77-22.297 21.266-28.285 17.75-10.125 28.137-16.742 42.516-25.902 11.715-7.4688 26.293-16.746 49.809-31.109 4.4102-2.6992 9.8984-3.5508 15.34-2.6289 1.9922-10.418 5.8164-21.273 10.969-32.539-21.004 0.4375-44.73-3.8555-58.113-6.7344-5.7031-1.207-11.5-0.26172-16.297 2.7031-34.672 21.414-76.82 61.211-94.254 79.262-5.4492 5.6367-7.6289 13.398-5.8359 20.75 5.7461 23.555 19.57 44.977 28.629 57.191zm67.273-128.16c0.20312-0.011719 20.48-0.79688 32.566-5.6758 2.9219-1.1797 6.2383 0.23438 7.4102 3.1484 1.1797 2.9141-0.23438 6.2344-3.1484 7.4062-13.953 5.6367-35.508 6.4648-36.422 6.5-0.066406 0.003906-0.13672 0.003906-0.20312 0.003906-3.0508 0-5.5742-2.418-5.6875-5.4883-0.11328-3.1445 2.3398-5.7812 5.4844-5.8945z"/>
  <path d="m695.36 245.55c-0.59766-8.6641-6.0508-16.262-13.891-19.348-13.086-5.1562-27.277-7.5273-27.422-7.5547-19.895-3.6992-28.91-10.559-34.324-18.707l-40.363 29.184c3.9062 3.5 7.7578 7.0312 11.5 10.609 9.3828 8.9922 12.699 22.98 8.4414 35.641-9.4336 28.059-13.77 54.227-17.965 79.539-0.5 3.0352-1 5.9883-1.4961 8.9492 26.453 14.09 34.301 11.715 41.867 9.3867 5.5664-1.7188 10.605-3.25 15.227-4.6523 25.977-7.8945 37.832-11.5 54.578-21.234 5.3906-3.1367 8.6406-8.9023 8.4883-15.055-0.68359-27.055-3.207-65.969-4.6406-86.758zm-13.055 78.594c-1.1055 1.5938-2.8789 2.4531-4.6836 2.4531-1.1172 0-2.25-0.33203-3.2344-1.0117-54.562-37.805-54.355-48.527-45.488-76.734 0.95703-3.0391 1.9922-6.3242 3-9.957 0.84375-3.0273 3.9727-4.8086 7.0078-3.9492 3.0273 0.83594 4.7969 3.9805 3.957 7.0078-1.0469 3.7578-2.1172 7.168-3.1094 10.32-7.0352 22.379-9.1602 29.129 41.109 63.953 2.5938 1.7891 3.2344 5.3359 1.4414 7.918z"/>
  <path d="m582.98 247.95c-45.734-43.836-106.14-82.199-138.07-101.17-10.855-6.4492-22.816-9.875-34.805-10.367-0.93359 0.20313-1.8672 0.11328-2.7734-0.14062-0.21094 0-0.41406-0.011719-0.625-0.011719 6.7617 107.57 24.895 115.68 52.102 127.72 18.57 8.2188 41.68 18.453 66.648 59.258 11.25 18.375 26.594 26.492 45.547 24.387 3.8711-23.207 8.4805-49.059 17.5-75.875 2.8555-8.5039 0.6875-17.844-5.5273-23.805zm-63.605 0.074219c-0.125 0-0.25781-0.003907-0.38672-0.011719-34.742-2.3281-48.746-12.391-49.324-12.82-2.5312-1.8633-3.0742-5.4258-1.1992-7.957 1.8555-2.5117 5.3867-3.0625 7.918-1.2344 0.25781 0.18359 12.613 8.5898 43.371 10.652 3.1367 0.21094 5.5117 2.9258 5.3008 6.0625-0.20703 3.0039-2.707 5.3086-5.6797 5.3086z"/>
  <path d="m626.23 492.3c-13.297 0-28.609 8.043-29.488 11.73 0.011719 4.2969 9.3359 8.7656 30.164 8.7656 10.094 0 16.121-3.2773 16.121-8.7734-0.003907-4.8672-5.2148-11.723-16.797-11.723z"/>
  <path d="m631.86 446.31c0 3.1445-2.5508 5.6914-5.6953 5.6914s-5.6914-2.5469-5.6914-5.6914c0-3.1445 2.5469-5.6914 5.6914-5.6914s5.6953 2.5469 5.6953 5.6914"/>
  <path d="m535.09 506.08c0 4.7188-5.0977 8.5391-11.387 8.5391-6.2852 0-11.383-3.8203-11.383-8.5391 0-4.7148 5.0977-8.5352 11.383-8.5352 6.2891 0 11.387 3.8203 11.387 8.5352"/>
  <path d="m434.3 511.77c-10.883 0-23.941 6.9844-24.66 10.062 0.003907 9.3828 15.789 9.8594 18.961 9.8594 8.8125 0 15.402-4.5078 15.402-8.5391 0.003907-5.1914-1.6836-11.383-9.7031-11.383z"/>
  <path d="m340.87 490.64c-2.3398-1.8633-5.1133-2.8672-7.8711-2.8672-0.20312 0-0.41016 0-0.60938 0.011718-2.7109 0.14844-5.043 1.2852-6.5703 3.2031-3.3203 4.1602-1.957 10.781 3.0234 14.75 2.5117 2.0039 5.5156 2.9609 8.4805 2.8594 2.7109-0.14844 5.043-1.2852 6.5703-3.2031 3.3086-4.1641 1.957-10.785-3.0234-14.754z"/>
  <path d="m39.598 507.94c-13.805 0-16.828 2.7656-16.828 3.832 0 2.5547 0 8.5391 14.23 8.5391 8.3867 0 14.23-4.4961 14.23-8.5391 0-1.8867 0-3.832-11.633-3.832z"/>
  <path d="m11.387 463.39c0 3.1445-2.5508 5.6914-5.6953 5.6914-3.1445 0-5.6914-2.5469-5.6914-5.6914s2.5469-5.6914 5.6914-5.6914c3.1445 0 5.6953 2.5469 5.6953 5.6914"/>
  <path d="m102.46 537.39c0 3.1445-2.5508 5.6953-5.6914 5.6953-3.1445 0-5.6953-2.5508-5.6953-5.6953 0-3.1406 2.5508-5.6914 5.6953-5.6914 3.1406 0 5.6914 2.5508 5.6914 5.6914"/>
  <use y="628.46875" xlink:href="#v"/>
  <use x="20.886719" y="628.46875" xlink:href="#d"/>
  <use x="34.925781" y="628.46875" xlink:href="#b"/>
  <use x="54.226562" y="628.46875" xlink:href="#l"/>
  <use x="73.433594" y="628.46875" xlink:href="#a"/>
  <use x="87.039062" y="628.46875" xlink:href="#b"/>
  <use x="106.34375" y="628.46875" xlink:href="#f"/>
  <use x="136.628906" y="628.46875" xlink:href="#k"/>
  <use x="157" y="628.46875" xlink:href="#e"/>
  <use x="185.464844" y="628.46875" xlink:href="#j"/>
  <use x="207.492187" y="628.46875" xlink:href="#i"/>
  <use x="237.148438" y="628.46875" xlink:href="#b"/>
  <use x="256.453125" y="628.46875" xlink:href="#a"/>
  <use x="270.058594" y="628.46875" xlink:href="#h"/>
  <use x="290.320312" y="628.46875" xlink:href="#e"/>
  <use x="308.875" y="628.46875" xlink:href="#u"/>
  <use x="325.816406" y="628.46875" xlink:href="#a"/>
  <use x="349.328125" y="628.46875" xlink:href="#t"/>
  <use x="369.828125" y="628.46875" xlink:href="#a"/>
  <use x="383.433594" y="628.46875" xlink:href="#g"/>
  <use x="403.695312" y="628.46875" xlink:href="#f"/>
  <use x="424.070312" y="628.46875" xlink:href="#s"/>
  <use x="433.828125" y="628.46875" xlink:href="#c"/>
  <use y="656.929687" xlink:href="#r"/>
  <use x="12.382812" y="656.929687" xlink:href="#d"/>
  <use x="26.417969" y="656.929687" xlink:href="#c"/>
  <use x="45.972656" y="656.929687" xlink:href="#i"/>
  <use x="85.539062" y="656.929687" xlink:href="#a"/>
  <use x="99.144531" y="656.929687" xlink:href="#h"/>
  <use x="119.40625" y="656.929687" xlink:href="#b"/>
  <use x="148.621094" y="656.929687" xlink:href="#q"/>
  <use x="172.441406" y="656.929687" xlink:href="#c"/>
  <use x="191.996094" y="656.929687" xlink:href="#g"/>
  <use x="212.257813" y="656.929687" xlink:href="#p"/>
  <use x="242.429688" y="656.929687" xlink:href="#o"/>
  <use x="263.289062" y="656.929687" xlink:href="#d"/>
  <use x="277.324219" y="656.929687" xlink:href="#c"/>
  <use x="296.878906" y="656.929687" xlink:href="#n"/>
  <use x="306.636719" y="656.929687" xlink:href="#b"/>
  <use x="325.941406" y="656.929687" xlink:href="#m"/>
  <use x="342.8125" y="656.929687" xlink:href="#a"/>
 </g>
</svg>
